PathFileType	4	(X/Y/Z)	Kaydara																																																																																																																									
DataRate	CameraRate	NumFrames	NumMarkers	Units	OrigDataRate	OrigDataStartFrame	OrigNumFrames																																																																																																																					
30	30	6	41	mm	30	19	147																																																																																																																					
Frame#	Time	NABA_LFHD			NABA_RFHD			NABA_LBHD			NABA_RBHD			NABA_LFTShould			NABA_RFTShould			NABA_LRRShould			NABA_RRRShould			NABA_T10			NABA_STRN			NABA_TRUN			NABA_LSHO			NABA_LUPA			NABA_LELB			NABA_LFRM			NABA_LWRA			NABA_LWRB			NABA_LFIN			NABA_RSHO			NABA_RUPA			NABA_RELB			NABA_RFRM			NABA_RWRA			NABA_RWRB			NABA_RFIN			NABA_LFWT			NABA_RFWT			NABA_LBWT			NABA_RBWT			NABA_LTHI			NABA_LKNE			NABA_LSHN			NABA_LANK			NABA_LHEE			NABA_LTOE			NABA_RTHI			NABA_RKNE			NABA_RSHN			NABA_RANK			NABA_RHEE			NABA_RTOE		
		X1	Y1	Z1	X2	Y2	Z2	X3	Y3	Z3	X4	Y4	Z4	X5	Y5	Z5	X6	Y6	Z6	X7	Y7	Z7	X8	Y8	Z8	X9	Y9	Z9	X10	Y10	Z10	X11	Y11	Z11	X12	Y12	Z12	X13	Y13	Z13	X14	Y14	Z14	X15	Y15	Z15	X16	Y16	Z16	X17	Y17	Z17	X18	Y18	Z18	X19	Y19	Z19	X20	Y20	Z20	X21	Y21	Z21	X22	Y22	Z22	X23	Y23	Z23	X24	Y24	Z24	X25	Y25	Z25	X26	Y26	Z26	X27	Y27	Z27	X28	Y28	Z28	X29	Y29	Z29	X30	Y30	Z30	X31	Y31	Z31	X32	Y32	Z32	X33	Y33	Z33	X34	Y34	Z34	X35	Y35	Z35	X36	Y36	Z36	X37	Y37	Z37	X38	Y38	Z38	X39	Y39	Z39	X40	Y40	Z40	X41	Y41	Z41
																																																																																																																												
19	0.61	234.08669	1595.24567	-1885.85861	62.28903	1569.7673	-1860.90317	241.86258	1598.96362	-2011.4389	26.52297	1579.48532	-1955.75531	220.92463	1347.80228	-1961.0025	70.09611	1329.27765	-1950.9874	210.14137	1393.44635	-2083.28369	61.97799	1387.37503	-2064.68704	141.53041	1226.37184	-2144.48486	157.33815	1291.41556	-1908.84903	163.04447	1194.62753	-1859.27826	312.96442	1364.87747	-2021.6095	366.15719	1139.4796	-2080.76462	387.72713	1051.34872	-2062.91092	381.65916	975.39871	-2081.41357	348.94394	828.15842	-1999.17603	420.01431	830.5825	-2013.20969	407.90329	772.13928	-1966.22559	-16.02466	1358.00201	-1992.00226	-68.48901	1149.52164	-2059.13422	-95.88593	1032.89101	-2013.35999	-99.97543	937.64755	-1999.99329	-33.77828	821.29837	-1919.84131	-105.95002	809.60815	-1914.79919	-88.35043	777.43423	-1876.77185	279.78138	954.66194	-1963.53851	9.50479	950.38353	-1956.59439	218.39647	993.83369	-2132.3259	54.51107	1026.46767	-2129.72687	284.85016	658.00682	-2098.77609	290.83988	508.59642	-2045.06805	251.92923	309.93633	-2027.58179	283.29294	162.45634	-2100.86456	228.24778	111.00337	-2152.76855	253.99553	82.09875	-1977.1965	12.41918	668.10211	-2100.61798	33.55868	503.41408	-1994.1275	45.55581	332.19692	-2023.71613	43.60648	143.18712	-2095.16998	90.40918	100.06178	-2163.8559	74.77534	81.30831	-1979.24545
20	0.643	232.22109	1594.18945	-1885.1445	60.53645	1568.48557	-1860.28076	239.86973	1598.71918	-2010.48065	24.48421	1579.02313	-1955.39764	218.72694	1347.15958	-1962.2583	68.22473	1328.17581	-1953.1543	208.46458	1394.21021	-2083.8298	60.35346	1387.75833	-2065.73853	140.2593	1227.53769	-2146.78665	154.91384	1290.12115	-1911.14517	160.38544	1193.09052	-1862.41135	311.1677	1365.39352	-2022.10907	364.70284	1139.87892	-2081.57166	385.86277	1051.79626	-2064.09012	379.97528	976.06979	-2083.38318	346.80939	828.13568	-2002.22443	418.24905	830.84877	-2016.13541	406.10432	771.97006	-1969.93088	-17.84089	1357.66724	-1993.573	-69.84002	1148.63434	-2060.08667	-96.62318	1032.37656	-2013.93417	-100.96536	937.26311	-2000.62042	-35.53766	820.54466	-1920.47714	-107.75488	809.16397	-1915.46875	-90.446	777.12395	-1877.31842	277.32605	955.03578	-1966.03577	7.14175	950.56221	-1960.29526	217.07548	993.89626	-2135.10056	53.15814	1026.27991	-2133.45734	284.25529	658.10234	-2100.74463	289.86162	508.72978	-2046.19614	250.82911	310.11982	-2028.2814	283.1679	162.35447	-2100.63477	228.61868	110.9282	-2152.97836	253.8973	82.16854	-1977.19696	11.47586	667.74109	-2103.14224	31.99652	503.55717	-1995.67841	44.85842	331.84628	-2024.51981	43.37887	142.81616	-2095.30121	90.34031	99.81333	-2163.89877	74.83413	81.29897	-1979.35104
21	0.677	230.59937	1592.87567	-1884.57779	58.75426	1566.84723	-1860.06378	238.34454	1598.39844	-2009.91989	22.97606	1577.95853	-1955.0592	216.8684	1346.42593	-1963.43689	66.63889	1327.12692	-1955.00275	206.96554	1394.32098	-2084.46167	58.969	1387.77405	-2066.80099	138.97074	1228.24913	-2149.04007	152.95064	1288.85971	-1912.99805	158.18383	1191.50162	-1865.41031	309.43354	1365.0679	-2022.59216	363.64185	1140.17464	-2082.6123	384.89864	1052.50023	-2065.80475	379.086	976.33812	-2085.13901	345.46715	827.95288	-2005.04959	416.87321	830.87135	-2018.26004	404.07139	771.41891	-1972.40814	-19.47792	1357.34787	-1995.21225	-71.28465	1148.07098	-2061.61926	-97.5206	1031.99585	-2015.43015	-101.79682	936.87218	-2002.15744	-36.2459	820.63034	-1921.03485	-108.75009	808.85391	-1916.90628	-91.65942	776.99371	-1878.56476	275.53288	954.75929	-1968.92151	5.27762	950.047	-1963.50693	215.76653	993.37418	-2138.16299	51.83464	1025.70412	-2136.7984	283.86709	657.42485	-2101.92047	288.35394	508.38619	-2045.90134	247.93217	309.5578	-2027.63626	282.05677	161.7893	-2099.50027	228.37214	110.70359	-2153.19443	254.53022	83.27197	-1977.79861	10.58311	667.13791	-2105.67596	31.14526	503.2975	-1997.19833	45.48388	331.50093	-2025.96527	43.64354	142.20189	-2095.33081	90.6638	99.29006	-2163.918	75.20407	81.28379	-1979.53018
22	0.71	229.37214	1591.52252	-1884.19586	57.36946	1565.22552	-1860.08453	237.18996	1597.84576	-2009.36798	21.76027	1576.96518	-1954.98505	215.54941	1345.11169	-1964.73297	66.37753	1325.88852	-1956.37573	206.16755	1394.00024	-2085.45578	58.20621	1387.25128	-2068.09036	138.20315	1228.37326	-2151.01318	151.57948	1287.31949	-1914.70398	156.67009	1189.53049	-1867.97821	308.46487	1363.85162	-2023.24249	363.30936	1139.35425	-2084.00177	384.56654	1051.3826	-2067.14386	379.05182	975.37338	-2086.84402	344.3446	826.9503	-2007.48383	415.84873	829.75899	-2019.72092	402.52438	770.36209	-1974.27368	-20.53417	1356.45966	-1996.85959	-72.56392	1147.28638	-2063.93723	-98.94111	1031.06972	-2017.71622	-102.92361	935.89005	-2004.21417	-34.87948	820.34203	-1922.44476	-109.15125	808.12363	-1918.59528	-91.76124	776.48193	-1880.15839	274.55221	953.98819	-1972.34299	4.26425	949.25125	-1966.26526	214.64489	992.55005	-2141.47949	50.5459	1025.14366	-2139.49219	284.32455	656.0672	-2101.44928	286.56895	507.5082	-2042.73788	244.70243	308.54923	-2026.0054	280.46469	161.17554	-2098.23044	227.20257	110.43006	-2153.46512	253.78918	85.2316	-1978.85468	9.48611	666.19781	-2107.1965	30.5319	502.98634	-1997.85812	45.25529	330.87196	-2025.9819	43.80487	141.48366	-2095.33081	90.92318	98.80385	-2163.99216	75.54779	81.24925	-1979.70779
23	0.743	228.67126	1590.5127	-1883.82797	56.5582	1564.00894	-1860.22247	236.68423	1597.32162	-2008.89267	21.09489	1576.11282	-1955.20691	215.34344	1343.71399	-1966.04355	65.47173	1324.67407	-1958.29147	206.26631	1393.78159	-2086.35101	58.18637	1386.94519	-2069.14825	138.09486	1228.67508	-2153.04199	150.93513	1285.40848	-1916.09299	156.08354	1187.61299	-1870.11429	308.19735	1362.64374	-2024.37775	363.59581	1138.08708	-2085.58853	384.76212	1050.00511	-2068.62137	379.43737	973.98933	-2088.38882	343.56892	825.7148	-2009.29214	415.18047	828.37944	-2020.76569	401.23711	769.16641	-1975.27832	-20.77915	1355.46951	-1998.46161	-73.45537	1146.48575	-2066.81763	-100.37652	1030.1001	-2020.45761	-104.04212	934.8452	-2006.60721	-35.09879	819.69872	-1925.33401	-109.18046	807.13234	-1920.66666	-91.31135	776.00388	-1882.22458	274.41992	953.88893	-1975.0145	4.1043	949.09805	-1968.58902	213.98998	991.86508	-2144.31763	49.94523	1024.88411	-2141.99615	285.08234	655.16113	-2100.66299	285.71215	507.18342	-2039.98016	242.97089	307.92904	-2024.45221	279.84455	160.96716	-2097.06619	226.86941	110.38666	-2153.4848	252.96871	86.92129	-1979.28665	8.05316	665.55519	-2107.9686	30.00046	503.08434	-1997.40616	44.84642	330.48904	-2025.07034	43.52067	141.14017	-2095.02457	90.47139	98.72167	-2163.96286	75.55284	81.23404	-1979.79111
24	0.777	228.59035	1589.53461	-1883.5231	56.18221	1562.854	-1860.58029	236.86554	1596.77963	-2008.49609	21.10015	1575.28381	-1955.57831	215.69029	1342.71912	-1967.49283	66.24681	1323.63266	-1959.73938	206.62355	1393.58353	-2087.3291	58.64871	1386.77017	-2070.24933	138.60335	1228.80638	-2154.91226	151.34794	1284.25949	-1918.34122	156.35908	1186.30318	-1872.21893	308.60638	1362.06558	-2025.66025	363.83263	1137.39128	-2087.37228	385.0008	1049.32426	-2070.30182	379.60262	973.16383	-2089.81003	343.18886	825.19485	-2010.49545	414.90967	827.59933	-2021.5892	400.73643	768.64487	-1976.13495	-20.27854	1354.81979	-1999.81979	-73.56572	1146.43745	-2069.31213	-101.095	1029.93805	-2023.15063	-104.67494	934.44847	-2009.36462	-34.8902	819.23767	-1928.9003	-109.04228	806.65108	-1923.5495	-90.7551	775.72983	-1885.38681	274.49551	953.95958	-1976.23596	3.97417	949.40742	-1970.36362	214.18139	991.4682	-2145.75241	50.38444	1024.52606	-2143.94501	285.83906	654.75471	-2100.90393	286.02259	506.9273	-2039.41696	242.70918	307.41529	-2024.25339	280.09104	160.64295	-2096.99524	227.27293	110.05954	-2153.87268	252.91149	87.89824	-1979.88342	7.60566	665.03784	-2108.46817	29.6768	503.08937	-1996.84998	44.24811	330.08926	-2023.80325	43.44709	141.02049	-2094.92325	90.47509	98.69196	-2163.87253	75.52249	81.24446	-1979.84314
